<svg data-v-2cb57da0="" version="1.0" xmlns="http://www.w3.org/2000/svg" xmlns:xlink="http://www.w3.org/1999/xlink" width="100%" height="100%" viewBox="0 0 340.000000 250.000000" preserveAspectRatio="xMidYMid meet" color-interpolation-filters="sRGB" style="margin: auto;"><rect data-v-2cb57da0="" x="0" y="0" width="100%" height="100%" fill="#fff" fill-opacity="1" class="background"></rect> <rect data-v-2cb57da0="" x="0" y="0" width="100%" height="100%" fill="url(#watermark)" fill-opacity="1" class="watermarklayer"></rect> <g data-v-2cb57da0="" fill="#333" class="icon-text-wrapper icon-svg-group iconsvg" transform="translate(45.20500183105469,90.05999755859375)"><g class="iconsvg-imagesvg" transform="translate(0,1.5275917053222656)"><g><rect fill="#333" fill-opacity="0" stroke-width="2" x="0" y="0" width="60" height="66.82481873767918" class="image-rect"></rect> <svg x="0" y="0" width="60" height="66.82481873767918" filtersec="colorsb4881052995" class="image-svg-svg primary" style="overflow: visible;"><svg xmlns="http://www.w3.org/2000/svg" viewBox="0 -0.0028373277746140957 89.81000518798828 100.02556610107422"><title>资源 134</title><path d="M64.35 47.87c-.58 0-1.17 0-1.74.05.34.73.66 1.46 1 2.2a64.86 64.86 0 0 1 5.14 25.46 65.77 65.77 0 0 1-1.34 13.26L84.44 79a11.89 11.89 0 0 0 5.37-9.28v-10a33.48 33.48 0 0 0-25.46-11.85zM21.49 69a9.3 9.3 0 0 1 9.3-9.31 9.07 9.07 0 0 1 1.66.15 39.44 39.44 0 0 1 4.73-5.73 38.15 38.15 0 0 1 15.09-9.32 58 58 0 0 0-41.94-26.64L5.38 21A11.9 11.9 0 0 0 0 30.28v39.44A11.9 11.9 0 0 0 5.38 79l22 12.68a38.86 38.86 0 0 1-1.19-14.63 9.3 9.3 0 0 1-4.7-8.05z" fill="#275cde"></path><path d="M84.44 21L50.28 1.28a11.86 11.86 0 0 0-10.73 0L20.29 12.4a64 64 0 0 1 8.49 2.92 65.23 65.23 0 0 1 20.79 14 65.61 65.61 0 0 1 10.52 13.76 37.62 37.62 0 0 1 4.26-.24 38.33 38.33 0 0 1 25.46 9.64v-22.2A11.92 11.92 0 0 0 84.44 21z" fill="#0a2183"></path><path d="M37 62.08a9.31 9.31 0 0 1-5.95 16.2c-.08 1-.13 2-.13 3a33.2 33.2 0 0 0 3.26 14.39l5.33 3.07a11.84 11.84 0 0 0 10.72 0l7.87-4.54a57.76 57.76 0 0 0-3.27-44.94A33.46 33.46 0 0 0 37 62.08z" fill="#01cfff"></path></svg></svg> <!----></g></g> <g transform="translate(67,0)"><g data-gra="path-name" fill-rule="" class="tp-name iconsvg-namesvg" transform="translate(0,0)"><g transform="scale(1)"><g><path d="M-0.26 4.61Q0.37 2.7 5.88-8.9L5.88-8.9Q13.98-26.48 16.73-32.52L16.73-32.52Q17.21-33.57 17.21-34.26L17.21-34.26Q17.21-35.43 15.68-35.43L15.68-35.43Q13.61-35.43 12.18-34.13 10.75-32.83 10.04-30.87 9.32-28.91 9.32-26.9L9.32-26.9Q9.32-25.79 9.53-24.36L9.53-24.36Q7.78-24.36 6.78-25.87 5.77-27.38 5.77-29.18L5.77-29.18Q5.77-31.35 7.41-33.44 9.06-35.53 11.62-36.83 14.19-38.13 16.68-38.13L16.68-38.13Q18.75-38.13 20.1-36.99 21.45-35.85 22.16-32.99 22.88-30.13 22.88-25L22.88-25Q22.88-21.29 22.29-13.5L22.29-13.5Q21.87-7.78 21.87-6.2L21.87-6.2Q23.46-10.96 26.37-16.84 29.29-22.72 32.17-27.72 35.06-32.73 36.7-35.16L36.7-35.16Q37.55-36.49 38.13-36.99 38.71-37.49 39.61-37.49L39.61-37.49Q40.35-37.49 41.94-36.91L41.94-36.91Q40.88-34.63 39.19-27.64 37.49-20.65 36.25-12.95 35-5.24 35-0.53L35-0.53Q35 1.11 35.16 1.91 35.32 2.7 35.61 3.47 35.9 4.24 36.06 4.61L36.06 4.61Q33.79 4.61 32.62 3.95 31.46 3.28 31.03 1.83 30.61 0.37 30.61-2.28L30.61-2.28Q30.61-7.57 31.75-13.5 32.89-19.44 35.11-28.01L35.11-28.01Q31.77-23.25 27.8-14.51 23.83-5.77 21.92-0.16L21.92-0.16 21.55-0.05Q21.18 0.11 20.81 0.11L20.81 0.11Q19.06 0.11 18.51-1.91 17.95-3.92 17.95-8.31L17.95-8.31Q17.95-11.02 18.16-17.37L18.16-17.37Q18.38-24.04 18.38-27.11L18.38-27.11 18.32-30.24 12.87-17.42Q8.95-8.1 7.02-3.89 5.08 0.32 3.36 2.46 1.64 4.61-0.26 4.61L-0.26 4.61ZM44.48 2.49Q42.63 2.49 41.39 1.27 40.14 0.05 40.14-2.17L40.14-2.17Q40.14-5.24 42.39-9.06 44.64-12.87 48.14-15.52 51.63-18.16 55.13-18.16L55.13-18.16Q57.46-18.16 59.02-16.97 60.58-15.78 60.58-13.93L60.58-13.93Q60.58-11.49 57.56-11.39L57.56-11.39Q59.47-10.8 59.47-9.8L59.47-9.8Q59.47-9.43 59.1-8.68 58.73-7.94 58.25-7.15L58.25-7.15Q57.41-5.77 56.93-4.74 56.45-3.71 56.45-2.81L56.45-2.81Q56.45-2.01 56.85-1.46 57.25-0.9 58.04-0.9L58.04-0.9Q59.52-0.9 61.83-2.97 64.13-5.03 66.3-9.16L66.3-9.16 67.31-8.16Q65.35-3.76 62.44-1.09 59.52 1.59 56.56 1.59L56.56 1.59Q54.44 1.59 53.3 0.19 52.16-1.22 52.16-3.02L52.16-3.02Q49.78-0.16 48.08 1.17 46.39 2.49 44.48 2.49L44.48 2.49ZM45.6-0.21Q47.45-0.21 49.91-2.89 52.37-5.56 55.5-9.85L55.5-9.85 56.56-11.28Q56.72-11.54 56.98-11.54L56.98-11.54 57.19-11.49Q57.46-12.34 57.46-13.45L57.46-13.45Q57.46-16.2 55.23-16.2L55.23-16.2Q52.9-16.2 50.36-13.72 47.82-11.23 46.1-7.78 44.38-4.34 44.38-1.91L44.38-1.91Q44.38-1.01 44.67-0.61 44.96-0.21 45.6-0.21L45.6-0.21ZM67.68 14.83Q66.2 14.83 65.14 13.95 64.08 13.08 64.08 11.44L64.08 11.44Q64.08 9.37 65.64 7.68 67.2 5.98 69.27 4.79 71.33 3.6 74.72 2.01L74.72 2.01Q76.05-1.32 76.84-4.61L76.84-4.61Q72.55 0.79 68.79 0.79L68.79 0.79Q66.67 0.79 65.43-0.69 64.18-2.17 64.18-4.61L64.18-4.61Q64.18-8.16 66.51-11.33 68.84-14.51 72.29-16.44 75.73-18.38 78.85-18.38L78.85-18.38Q80.49-18.38 81.37-17.79 82.24-17.21 82.24-16.36L82.24-16.36Q82.24-15.83 81.92-15.41 81.61-14.99 81.39-14.93L81.39-14.93Q80.86-15.46 80.34-15.68 79.81-15.89 79.01-15.89L79.01-15.89Q76.42-15.89 73.98-13.95 71.54-12.02 70.04-9.29 68.53-6.57 68.53-4.4L68.53-4.4Q68.53-3.34 68.98-2.78 69.43-2.22 70.17-2.22L70.17-2.22Q71.6-2.22 73.69-4.08 75.78-5.93 77.85-8.84L77.85-8.84Q78.43-11.81 79.22-13.11 80.02-14.4 81.5-14.4L81.5-14.4Q82.19-14.4 83.04-14.19L83.04-14.19Q83.04-12.82 81.87-8.68 80.71-4.55 79.06-0.11L79.06-0.11Q81.71-1.22 84.17-3.57 86.64-5.93 87.7-9L87.7-9 88.65-8.05Q87.48-4.71 84.49-2.01 81.5 0.69 78.38 2.12L78.38 2.12Q75.94 8 73.32 11.41 70.7 14.83 67.68 14.83L67.68 14.83ZM67.47 12.39Q68.53 12.39 70.22 10.43 71.92 8.47 73.72 4.5L73.72 4.5Q70.27 6.2 68.37 7.71 66.46 9.21 66.46 10.91L66.46 10.91Q66.46 11.6 66.75 11.99 67.04 12.39 67.47 12.39L67.47 12.39ZM96.86-22.29Q95.75-22.29 94.98-22.82 94.21-23.35 94.21-24.36L94.21-24.36Q94.21-25.58 95.56-26.5 96.91-27.43 98.45-27.43L98.45-27.43Q100.72-27.43 100.72-25.47L100.72-25.47Q100.72-24.36 99.51-23.33 98.29-22.29 96.86-22.29L96.86-22.29ZM90.61 1.59Q88.38 1.59 87.17 0.26 85.95-1.06 85.95-3.12L85.95-3.12Q85.95-5.24 87.14-8.87 88.33-12.5 90.16-15.25 91.99-18.01 93.84-18.01L93.84-18.01Q94.53-18.01 94.98-17.61 95.43-17.21 95.43-16.47L95.43-16.47Q95.43-15.99 95-15.17 94.58-14.35 93.63-12.82L93.63-12.82Q91.93-10.01 90.95-7.86 89.97-5.72 89.97-3.81L89.97-3.81Q89.97-2.17 90.56-1.59 91.14-1.01 92.36-1.01L92.36-1.01Q96.54-1.01 100.67-9.11L100.67-9.11 101.47-8.26Q99.61-3.6 96.75-1.01 93.89 1.59 90.61 1.59L90.61 1.59ZM105.28 2.97Q102.42 2.97 100.7 1.19 98.98-0.58 98.98-4.02L98.98-4.02Q98.98-7.41 100.7-10.64 102.42-13.87 105.17-15.89 107.93-17.9 110.73-17.9L110.73-17.9Q112.85-17.9 113.88-16.84 114.92-15.78 114.92-14.19L114.92-14.19Q114.92-12.6 114.15-11.25 113.38-9.9 112.27-9.9L112.27-9.9Q111.26-9.9 110.63-10.91L110.63-10.91Q111.26-11.33 111.79-12.39 112.32-13.45 112.32-14.88L112.32-14.88Q112.32-15.78 111.32-15.78L111.32-15.78Q109.62-15.78 107.66-13.77 105.7-11.76 104.38-8.9 103.05-6.04 103.05-3.71L103.05-3.71Q103.05-2.01 103.9-0.87 104.75 0.26 106.81 0.26L106.81 0.26Q108.83 0.26 111.02-0.9 113.22-2.07 115.13-4.21 117.03-6.35 118.15-9.16L118.15-9.16 119.21-8.21Q117.93-5.03 115.68-2.49 113.43 0.05 110.68 1.51 107.93 2.97 105.28 2.97L105.28 2.97ZM120.95 1.59Q119.21 1.59 118.04-0.05 116.88-1.69 116.88-3.92L116.88-3.92Q116.88-5.83 117.72-8.68 118.57-11.54 119.71-13.66 120.85-15.78 121.69-15.78L121.69-15.78Q122.07-15.78 122.83-15.38 123.6-14.99 124.18-14.4L124.18-14.4Q123.07-12.76 121.88-9.69 120.69-6.62 120.69-4.4L120.69-4.4Q120.69-3.39 120.98-2.3 121.27-1.22 122.28-1.22L122.28-1.22Q124.24-1.22 126.96-5.59 129.69-9.96 131.65-14.46L131.65-14.46Q134.83-13.93 134.83-12.66L134.83-12.66Q134.83-12.55 134.19-11.12L134.19-11.12Q133.08-8.53 132.29-6.3 131.49-4.08 131.49-2.44L131.49-2.44Q131.49-0.58 132.92-0.58L132.92-0.58Q134.03-0.58 135.6-1.62 137.16-2.65 138.8-4.58 140.44-6.51 141.66-9.06L141.66-9.06 142.45-8.42Q141.29-5.56 139.44-3.28 137.58-1.01 135.44 0.29 133.29 1.59 131.33 1.59L131.33 1.59Q129 1.59 128.34-0.03 127.68-1.64 127.68-4.34L127.68-4.34Q125.88-1.59 124.29 0 122.7 1.59 120.95 1.59L120.95 1.59ZM145.84 3.87Q142.88 3.87 141.29 2.01 139.7 0.16 139.7-3.18L139.7-3.18Q139.7-8.16 142.88-16.5 146.05-24.84 150.13-31.32 154.21-37.81 156.54-37.81L156.54-37.81Q157.55-37.81 158.1-36.7 158.66-35.59 158.71-34.16L158.71-34.16Q158.71-31.62 156.96-27.51 155.22-23.41 152.38-19.65 149.55-15.89 146.43-14.09L146.43-14.09Q145.68-12.71 144.86-9.56 144.04-6.41 144.04-3.5L144.04-3.5Q144.04-1.17 144.7 0.24 145.37 1.64 146.8 1.64L146.8 1.64Q148.17 1.64 149.76 0.4 151.35-0.85 152.36-2.7L152.36-2.7Q150.45-3.76 149.42-5.64 148.38-7.52 148.38-9.69L148.38-9.69Q148.38-12.23 149.76-13.85 151.14-15.46 153.2-15.46L153.2-15.46Q155-15.46 156.06-14.11 157.12-12.76 157.12-10.17L157.12-10.17Q157.12-6.94 155.53-3.5L155.53-3.5 156.49-3.44Q158.92-3.44 160.51-5.14 162.1-6.83 163.32-9.32L163.32-9.32 164.11-8.21Q162.68-4.92 160.75-3.36 158.82-1.8 155.8-1.8L155.8-1.8Q155.06-1.8 154.69-1.85L154.69-1.85Q153.05 0.74 150.82 2.3 148.6 3.87 145.84 3.87L145.84 3.87ZM147.43-17.42Q149.6-19.38 151.62-22.53 153.63-25.68 154.9-28.62 156.17-31.56 156.22-32.83L156.22-32.83Q155.53-32.57 153.84-30.19 152.14-27.8 150.34-24.33 148.54-20.86 147.43-17.42L147.43-17.42ZM153.26-4.45Q154.21-6.62 154.21-8.95L154.21-8.95Q154.21-10.75 153.79-11.7 153.36-12.66 152.67-12.66L152.67-12.66Q151.99-12.66 151.48-11.7 150.98-10.75 150.98-9.43L150.98-9.43Q150.98-8.1 151.54-6.7 152.09-5.3 153.26-4.45L153.26-4.45ZM168.08 2.33Q164.75 2.33 162.89 0.53 161.04-1.27 161.04-4.08L161.04-4.08Q161.04-7.15 163.11-10.72 165.17-14.3 168.4-16.71 171.63-19.12 174.76-19.12L174.76-19.12Q176.4-19.12 177.51-18.3 178.62-17.48 178.62-15.57L178.62-15.57Q178.62-13.03 176.66-10.78 174.7-8.53 171.61-7.1 168.51-5.67 165.28-5.3L165.28-5.3Q165.17-4.77 165.17-4.08L165.17-4.08Q165.17-2.7 165.94-1.32 166.71 0.05 169.25 0.05L169.25 0.05Q172.48 0.05 175.84-2.57 179.21-5.19 181.27-9.11L181.27-9.11 182.33-8.26Q180.21-3.5 176.27-0.58 172.32 2.33 168.08 2.33L168.08 2.33ZM165.86-7.26Q167.77-7.47 170.12-8.79 172.48-10.11 174.12-12.05 175.76-13.98 175.76-15.83L175.76-15.83Q175.76-16.42 175.55-16.63 175.34-16.84 174.86-16.84L174.86-16.84Q173.33-16.84 171.5-15.38 169.67-13.93 168.14-11.7 166.6-9.48 165.86-7.26L165.86-7.26Z" transform="translate(0.25999999046325684, 38.130001068115234)"></path></g> <!----> <!----> <!----> <!----> <!----> <!----> <!----></g></g> <g data-gra="path-slogan" fill-rule="" class="tp-slogan iconsvg-slogansvg" fill="#333" transform="translate(5,58.959999084472656)"><rect x="0" height="1" y="4.960000038146973" width="53.83499717712402"></rect> <rect height="1" y="4.960000038146973" width="53.83499717712402" x="118.7549991607666"></rect> <g transform="translate(56.83499717712402,0)"><g transform="scale(1)"><path d="M2.72-9.70L2.72-9.70Q3.94-9.28 4.03-9.05L4.03-9.05Q4.03-9 3.89-8.91L3.89-8.91Q3.70-8.77 3.61-8.63L3.61-8.63Q3.56-8.53 3.42-8.25L3.42-8.25Q3.05-7.50 2.86-7.13L2.86-7.13L2.86-0.38Q2.86 0.56 2.95 1.03L2.95 1.03L1.83 1.03Q1.83 0.94 1.88 0.80L1.88 0.80Q1.92 0.38 1.92-0.33L1.92-0.33L1.92-5.53Q1.69-4.92 0.84-3.61L0.84-3.61Q0.56-4.08 0.14-4.45L0.14-4.45Q1.92-6.23 2.72-9.70ZM9.84-9.28L9.84-9.28Q10.59-8.44 10.64-8.16L10.64-8.16Q10.64-8.11 10.36-8.11L10.36-8.11Q9.42-8.16 8.30-8.02L8.30-8.02Q8.30-6.38 8.34-5.48L8.34-5.48L9.38-5.48Q10.59-5.48 10.92-5.58L10.92-5.58L10.92-4.50Q10.41-4.59 9.38-4.59L9.38-4.59L8.39-4.59Q8.86-1.08 10.17-0.38L10.17-0.38Q10.41-0.47 10.59-1.45L10.59-1.45Q10.88-1.08 11.34-0.75L11.34-0.75Q11.39-0.70 11.44-0.66L11.44-0.66Q10.97 0.66 10.50 0.80L10.50 0.80Q9.09 0.94 8.02-1.97L8.02-1.97Q7.59-3.14 7.41-4.59L7.41-4.59L5.48-4.59L5.48-0.66Q5.63-0.80 5.91-1.13L5.91-1.13Q6.47-1.73 6.80-2.11L6.80-2.11L7.22-1.22Q5.44 0.23 4.92 0.94L4.92 0.94L4.22 0.14Q4.59-0.19 4.59-0.89L4.59-0.89L4.59-7.13Q4.59-8.16 4.50-8.63L4.50-8.63Q7.83-8.67 9.84-9.28ZM7.36-7.92L7.36-7.92L5.48-7.83L5.48-5.48L7.41-5.48Q7.36-6.56 7.36-7.92ZM6.42-0.14L7.08-0.75Q7.64-0.28 8.16 0.38L8.16 0.38L7.45 0.98Q7.13 0.38 6.42-0.14L6.42-0.14ZM17.77-9.61L17.77-9.61Q18.23-9.56 18.80-9.56L18.80-9.56Q19.31-9.52 19.27-9.47L19.27-9.47Q19.27-9.42 19.22-9.38L19.22-9.38Q18.98-9 18.98-8.16L18.98-8.16Q18.98-7.31 19.03-6.14L19.03-6.14L21.70-6.70Q22.55-6.89 22.92-7.08L22.92-7.08Q22.97-7.13 23.02-7.13L23.02-7.13L23.25-6.05Q23.20-6 23.06-6L23.06-6Q22.59-6 21.89-5.81L21.89-5.81L19.13-5.25Q19.78-1.22 21.84-0.23L21.84-0.23Q22.17-0.61 22.17-1.73L22.17-1.73Q22.55-1.31 23.30-0.98L23.30-0.98Q22.69 0.89 22.36 0.89L22.36 0.89Q19.27 0.66 18.19-5.06L18.19-5.06L17.39-4.83Q16.69-4.64 16.08-4.41L16.08-4.41Q15.80-4.31 15.80-4.36L15.80-4.36L15.56-5.39Q15.56-5.39 15.66-5.39L15.66-5.39Q16.17-5.44 17.16-5.67L17.16-5.67L18.09-5.91Q18.05-6.52 17.95-7.59L17.95-7.59Q17.86-8.91 17.77-9.61ZM14.86-9.56L14.86-9.56Q15-9.52 15.23-9.47L15.23-9.47Q16.36-9.23 16.31-9.09L16.31-9.09Q16.31-9.05 16.22-8.95L16.22-8.95Q15.80-8.44 15.28-7.13L15.28-7.13L15.28-0.61Q15.28 0.33 15.38 1.08L15.38 1.08L14.20 1.08Q14.30 0.19 14.30-0.66L14.30-0.66L14.30-5.20Q14.20-5.06 14.06-4.83L14.06-4.83Q13.69-4.13 13.17-3.38L13.17-3.38Q12.94-3.89 12.42-4.22L12.42-4.22Q14.63-6.98 14.86-9.56ZM19.97-8.72L20.86-9.19Q21.23-8.72 22.08-7.45L22.08-7.45L21.14-6.89Q20.72-7.78 19.97-8.72L19.97-8.72ZM29.86-7.97L29.86-9.05Q30.70-8.91 31.69-8.91L31.69-8.91L32.95-8.91Q33.84-8.91 34.36-9L34.36-9L33.84-4.36Q34.78-4.36 35.16-4.41L35.16-4.41Q35.11-3.98 35.06-2.77L35.06-2.77Q34.97-0.05 34.69 0.19L34.69 0.19Q34.22 0.84 32.67 0.89L32.67 0.89Q32.63 0.09 32.16-0.33L32.16-0.33Q33.56-0.05 33.80-0.47L33.80-0.47Q33.94-0.42 34.08-3.47L34.08-3.47L31.31-3.47Q30.52-3.47 30.19-3.38L30.19-3.38Q30.19-3.42 30.23-3.56L30.23-3.56Q30.33-4.13 30.33-4.55L30.33-4.55L30.33-7.36Q31.36-7.36 31.50-7.22L31.50-7.22Q31.50-7.17 31.45-7.08L31.45-7.08Q31.27-6.70 31.27-6.09L31.27-6.09L31.27-4.36L32.91-4.36L33.33-8.06L31.73-8.06Q30.52-8.02 29.86-7.97L29.86-7.97ZM24.98-7.73L24.98-8.81Q25.73-8.67 26.30-8.67L26.30-8.67L27.80-8.67Q28.83-8.72 29.30-8.81L29.30-8.81L29.30-7.73Q28.97-7.83 27.70-7.83L27.70-7.83L26.91-5.67L28.17-5.67Q28.78-5.67 29.20-5.77L29.20-5.77Q29.06-5.16 29.06-4.69L29.06-4.69L29.06-2.20Q29.06-1.41 29.20-0.70L29.20-0.70L28.13-0.70Q28.17-0.75 28.17-1.59L28.17-1.59L26.81-1.59Q26.81-0.84 26.91 0L26.91 0L25.78 0Q25.92-0.70 25.92-1.73L25.92-1.73L25.92-4.13Q25.69-3.80 25.03-2.91L25.03-2.91Q24.84-3.42 24.42-3.80L24.42-3.80Q25.78-4.73 26.77-7.83L26.77-7.83L26.25-7.83Q25.17-7.83 24.98-7.73L24.98-7.73ZM28.17-4.92L26.81-4.92L26.81-2.39L28.17-2.39L28.17-4.92ZM33.38-2.34L33.38-2.34L33.38-1.27Q32.63-1.36 31.78-1.36L31.78-1.36L31.03-1.36Q30.14-1.36 29.58-1.27L29.58-1.27L29.58-2.34Q30.47-2.20 30.94-2.20L30.94-2.20L31.83-2.20Q32.77-2.20 33.38-2.34ZM37.88-8.06L37.88-9.09Q38.20-9 39.47-9L39.47-9L44.63-9Q45.75-9 46.13-9.09L46.13-9.09L46.13-8.06Q46.08-8.16 44.63-8.16L44.63-8.16L42.56-8.16L42.56-3.75L45.47-3.75Q46.41-3.75 47.11-3.84L47.11-3.84L47.11-2.77Q46.45-2.91 45.42-2.91L45.42-2.91L42.56-2.91L42.56-0.61Q42.56 0.23 42.66 0.94L42.66 0.94L41.48 0.94Q41.58 0.33 41.58-0.61L41.58-0.61L41.58-2.86L38.48-2.86Q37.41-2.86 36.84-2.77L36.84-2.77L36.84-3.84Q37.50-3.75 38.44-3.75L38.44-3.75L41.58-3.75L41.58-8.16L39.47-8.16Q38.34-8.16 37.88-8.06L37.88-8.06ZM44.86-7.22L44.86-7.22L45.84-6.70Q45.09-5.20 44.39-4.22L44.39-4.22Q44.06-4.59 43.55-4.83L43.55-4.83Q44.39-5.91 44.86-7.22ZM38.39-6.70L39.38-7.17Q39.75-6 40.45-4.88L40.45-4.88L39.42-4.41Q38.91-5.44 38.39-6.70L38.39-6.70ZM53.20-9.75L53.20-9.75Q54.66-9.28 54.61-9.14L54.61-9.14Q54.61-9.05 54.42-8.95L54.42-8.95Q54.14-8.81 53.95-8.63L53.95-8.63Q52.69-7.22 51-5.67L51-5.67Q52.78-5.72 56.72-5.95L56.72-5.95Q56.16-6.52 54.98-7.45L54.98-7.45L55.92-8.16Q57.14-7.08 59.06-5.06L59.06-5.06L58.03-4.22Q58.03-4.27 57.98-4.31L57.98-4.31Q57.75-4.73 57.38-5.16L57.38-5.16Q51.23-4.59 49.55-4.55L49.55-4.55L49.22-5.67Q50.11-5.72 51.23-6.94L51.23-6.94Q52.55-8.34 53.20-9.75ZM57.84-3.61L57.84-3.61Q57.84-3.56 57.84-3.42L57.84-3.42Q57.80-2.86 57.80-2.39L57.80-2.39L57.80-0.23Q57.80 0 57.84 0.42L57.84 0.42Q57.84 0.89 57.84 1.08L57.84 1.08L56.72 1.08L56.77 0.28L51.23 0.28L51.28 1.17L50.11 1.17Q50.20 0.33 50.20-0.14L50.20-0.14L50.20-2.44Q50.20-3.09 50.16-3.61L50.16-3.61Q50.20-3.61 50.25-3.61L50.25-3.61Q50.77-3.56 51.38-3.56L51.38-3.56L56.44-3.56Q57.23-3.56 57.84-3.61ZM56.77-0.52L56.77-2.63L51.23-2.63L51.23-0.52L56.77-0.52Z" transform="translate(-0.140625, 9.75)"></path></g></g></g></g></g><defs v-gra="od"></defs></svg>